# AST/ASF file generated using VICON BodyLanguage
# -----------------------------------------------
:version 1.10
:name VICON
:units
  mass 1.0
  length 0.45
  angle deg
:documentation
   .ast/.asf automatically generated from VICON data using
   VICON BodyBuilder and BodyLanguage model FoxedUp or BRILLIANT.MOD
:root
   order TX TY TZ RX RY RZ
   axis XYZ
   position 0 0 0  
   orientation 0 -0 0 
:bonedata
  begin
     id 1 
     name lhipjoint
     direction 0.500677 -0.737119 0.453848 
     length 2.34727 
     axis 0 -0 0  XYZ
  end
  begin
     id 2 
     name lfemur
     direction 0.34202 -0.939693 0  
     length 7.53653  
     axis 0 -0 20  XYZ
    dof rx ry rz
    limits (-160.0 20.0)
           (-70.0 70.0)
           (-60.0 70.0)
  end
  begin
     id 3 
     name ltibia
     direction 0.34202 -0.939693 0   
     length 6.85572   
     axis 0 -0 20   XYZ
    dof rx
    limits (-10.0 170.0)
  end
  begin
     id 4 
     name lfoot
     direction 0.155313 -0.426718 0.890949   
     length 2.18324   
     axis -90 -1.13533e-015 20   XYZ
    dof rx rz
    limits (-45.0 90.0)
           (-70.0 20.0)
  end
  begin
     id 5 
     name ltoes
     direction 1.53474e-011 -4.21647e-011 1   
     length 1.06748   
     axis -90 -1.13533e-015 20   XYZ
    dof rx
    limits (-90.0 20.0)
  end
  begin
     id 6 
     name rhipjoint
     direction -0.632471 -0.659587 0.406111   
     length 2.62319  
     axis 0 -0 0  XYZ 
  end
  begin
     id 7 
     name rfemur
     direction -0.34202 -0.939693 0   
     length 7.21735   
     axis 0 -0 -20   XYZ
    dof rx ry rz
    limits (-160.0 20.0)
           (-70.0 70.0)
           (-70.0 60.0)
  end
  begin
     id 8 
     name rtibia
     direction -0.34202 -0.939693 0   
     length 7.02558   
     axis 0 -0 -20   XYZ
    dof rx
    limits (-10.0 170.0)
 end
 begin
     id 9 
     name rfoot
     direction -0.16057 -0.441164 0.882945   
     length 2.10014  
     axis -90 1.13533e-015 -20   XYZ
    dof rx rz
    limits (-45.0 90.0)
           (-20.0 70.0)
  end
  begin
     id 10 
     name rtoes
     direction -1.53553e-011 -4.2192e-011 1   
     length 1.02554   
     axis -90 1.13533e-015 -20   XYZ
    dof rx
    limits (-90.0 20.0)
  end
  begin
     id 11 
     name lowerback
     direction 0.0401429 0.998861 -0.0258085   
     length 1.80848   
     axis 0 -0 0   XYZ
    dof rx ry rz
    limits (-20.0 45.0)
           (-30.0 30.0)
           (-30.0 30.0)
  end
  begin
     id 12 
     name upperback
     direction -0.0130978 0.999914 -0.000352645   
     length 1.8116   
     axis 0 -0 0   XYZ
    dof rx ry rz
    limits (-20.0 45.0)
           (-30.0 30.0)
           (-30.0 30.0)
  end
  begin
     id 13 
     name thorax
     direction -0.0300198 0.999453 0.0138573   
     length 1.81778   
     axis 0 -0 0   XYZ
    dof rx ry rz
    limits (-20.0 45.0)
           (-30.0 30.0)
           (-30.0 30.0)
  end
  begin
     id 14 
     name lowerneck
     direction -0.0401726 0.999191 -0.00173647   
     length 2.10594   
     axis 0 -0 0   XYZ
    dof rx ry rz
    limits (-20.0 45.0)
           (-30.0 30.0)
           (-30.0 30.0)
  end
  begin
     id 15 
     name upperneck
     direction 0.0119835 0.998501 0.0534085   
     length 2.07325   
     axis 0 -0 0   XYZ
    dof rx ry rz
    limits (-20.0 45.0)
           (-30.0 30.0)
           (-30.0 30.0)
  end
  begin
     id 16
     name head
     direction 0.00628309 0.999826 0.0175921  
     length 2.15096  
     axis 0 -0 0   XYZ
    dof rx ry rz
    limits (-20.0 45.0)
           (-30.0 30.0)
           (-30.0 30.0)
  end
  begin
     id 17 
     name lclavicle
     direction 0.895501 0.429681 -0.115981  
     length 4.18092  
     axis 0 -0 0   XYZ
    dof ry rz
    limits (-20.0 10.0)
           (0.0 20.0)
  end
  begin
     id 18 
     name lhumerus
     direction 1 -4.48961e-011 -3.38433e-028   
     length 5.77237   
     axis 180 -30 -90   XYZ
    dof rx ry rz
    limits (-60.0 90.0)
           (-90.0 90.0)
           (-90.0 90.0)
  end
  begin
     id 19
     name lradius
     direction 1 -4.4901e-011 1.11983e-026   
     length 2.91878   
     axis 180 -30 -90   XYZ
    dof rx
    limits (-10.0 170.0)
  end
  begin
     id 20
     name lwrist
     direction 1 -4.48934e-011 1.88176e-026   
     length 1.45939   
     axis -1.23311e-014 90 90   XYZ
    dof ry
    limits (-180.0 0.0)
 end
  begin
     id 21 
     name lhand
     direction 1 -4.4895e-011 3.76352e-026   
     length 1.06566   
     axis -2.40147e-014 90 90   XYZ
    dof rx rz
    limits (-90.0 90.0)
           (-45.0 45.0)
  end
  begin
     id 22 
     name lfingers
     direction 1 -4.49005e-011 7.52705e-026   
     length 0.859162   
     axis -4.80295e-014 90 90   XYZ
    dof rx
    limits (0.0 90.0)
  end
  begin
     id 23
     name lthumb
     direction 0.707107 -6.34885e-011 0.707107   
     length 1.23359   
     axis -90 45 -9.86935e-015   XYZ
    dof rx rz
    limits (-45.0 45.0)
           (-45.0 45.0)
  end
  begin
     id 24 
     name rclavicle
     direction -0.91006 0.40451 -0.0903492   
     length 4.23293  
     axis 0 -0 0   XYZ 
    dof ry rz
    limits (-10.0 20.0)
           (-20.0 0.0)
  end
  begin
     id 25 
     name rhumerus
     direction -1 -4.4897e-011 1.7415e-027  
     length 5.49854   
     axis 180 30 90   XYZ
    dof rx ry rz
    limits (-90.0 60.0)
           (-90.0 90.0)
           (-90.0 90.0)
  end
  begin
     id 26 
     name rradius
     direction -1 -4.48963e-011 1.21259e-026   
     length 3.1186   
     axis 180 30 90   XYZ
    dof rx
    limits (-10.0 170.0)
  end
  begin
     id 27 
     name rwrist
     direction -1 -4.48967e-011 1.88176e-026   
     length 1.5593   
     axis -1.23311e-014 -90 -90   XYZ
    dof ry
    limits (-180.0 0.0)
  end
  begin
     id 28
     name rhand
     direction -1 -4.4895e-011 3.76352e-026   
     length 0.71207   
     axis -2.40147e-014 -90 -90   XYZ
    dof rx rz
    limits (-90.0 90.0)
           (-45.0 45.0)
  end
  begin
     id 29
     name rfingers
     direction -1 -4.49005e-011 7.52705e-026   
     length 0.574089   
     axis -4.80295e-014 -90 -90   XYZ
    dof rx
    limits (0.0 90.0)
  end
  begin
     id 30
     name rthumb
     direction -0.707107 -6.34982e-011 0.707107   
     length 0.824281   
     axis -90 -45 9.86935e-015   XYZ
    dof rx rz
    limits (-45.0 45.0)
           (-45.0 45.0)
  end
:hierarchy
  begin
    root lhipjoint rhipjoint lowerback
    lhipjoint lfemur
    lfemur ltibia
    ltibia lfoot
    lfoot ltoes
    rhipjoint rfemur
    rfemur rtibia
    rtibia rfoot
    rfoot rtoes
    lowerback upperback
    upperback thorax
    thorax lowerneck lclavicle rclavicle
    lowerneck upperneck
    upperneck head
    lclavicle lhumerus
    lhumerus lradius
    lradius lwrist
    lwrist lhand lthumb
    lhand lfingers
    rclavicle rhumerus
    rhumerus rradius
    rradius rwrist
    rwrist rhand rthumb
    rhand rfingers
  end

#!OML:ASF C:\ViconDB\ViconDB\414\Spring2016\042216\male.ASF
:FULLY-SPECIFIED
:DEGREES
560
root 44.5739 17.8108 12.0466 -20.1561 85.0317 -20.4694
lowerback -2.08802 -1.50195 3.87368
upperback -1.53251 -2.05086 -1.25091
thorax -0.587266 -1.0604 -3.48666
lowerneck -3.65703 0.491811 -4.5561
upperneck 8.24662 0.646861 4.55786
head 3.29959 0.373165 2.34293
rclavicle 1.54804e-014 9.14409e-015
rhumerus -31.2512 -7.86215 -91.3442
rradius 26.2537
rwrist 32.7325
rhand 13.1073 -18.4856
rfingers 7.12502
rthumb 38.0672 -44.2666
lclavicle 1.54804e-014 9.14409e-015
lhumerus -35.0194 12.6025 86.4222
lradius 33.4007
lwrist -14.1568
lhand -5.6159 12.0741
lfingers 7.12502
lthumb 20.2016 41.0437
rfemur -9.08781 1.59141 21.974
rtibia 22.7622
rfoot -13.9174 1.79096
rtoes -7.79555
lfemur -7.63459 -2.46504 -19.2147
ltibia 26.0957
lfoot -21.3121 13.2509
ltoes -18.7253
561
root 44.5961 17.8132 12.0627 -19.1064 85.0076 -19.4911
lowerback -2.18552 -1.49861 3.72477
upperback -1.53067 -2.04727 -1.21797
thorax -0.523604 -1.05562 -3.3719
lowerneck -3.70822 0.500642 -4.55555
upperneck 8.20056 0.657925 4.59146
head 3.2931 0.380072 2.35456
rclavicle 3.38182e-014 5.56597e-015
rhumerus -31.0583 -7.90297 -91.223
rradius 26.3251
rwrist 34.3203
rhand 13.8169 -17.7546
rfingers 7.12502
rthumb 38.7368 -43.3495
lclavicle 3.38182e-014 5.56597e-015
lhumerus -35.3399 13.419 86.0759
lradius 32.4542
lwrist -15.0786
lhand -6.10439 12.187
lfingers 7.12502
lthumb 19.732 41.2055
rfemur -9.06527 2.07386 21.9459
rtibia 22.7668
rfoot -14.0643 1.41957
rtoes -7.72913
lfemur -7.58438 -2.7216 -19.2765
ltibia 26.0256
lfoot -21.3569 13.5637
ltoes -18.4857
562
root 44.6134 17.8131 12.075 -19.2596 85.0476 -19.7073
lowerback -2.21196 -1.53017 3.71604
upperback -1.52399 -2.09024 -1.1933
thorax -0.50435 -1.07641 -3.34294
lowerneck -3.74298 0.470008 -4.56089
upperneck 8.14075 0.615383 4.63255
head 3.28169 0.360297 2.36735
rclavicle 5.15101e-014 1.31198e-014
rhumerus -30.813 -7.90872 -91.2191
rradius 26.5031
rwrist 35.3372
rhand 14.6369 -17.3144
rfingers 7.12502
rthumb 39.5098 -42.6865
lclavicle 5.15101e-014 1.31198e-014
lhumerus -35.6854 14.0099 85.7448
lradius 31.5957
lwrist -15.99
lhand -6.01489 12.516
lfingers 7.12502
lthumb 19.818 41.5257
rfemur -9.02109 2.38621 21.9985
rtibia 22.7384
rfoot -14.1744 1.0695
rtoes -7.60563
lfemur -7.55993 -2.85403 -19.2477
ltibia 26.005
lfoot -21.4347 13.6754
ltoes -18.3073
563
root 44.6315 17.812 12.0795 -18.6446 85.0529 -19.1486
lowerback -2.25157 -1.52776 3.74019
upperback -1.5063 -2.08921 -1.19651
thorax -0.464938 -1.07505 -3.36139
lowerneck -3.81487 0.474853 -4.57414
upperneck 8.05409 0.616879 4.74769
head 3.26628 0.365164 2.40852
rclavicle 4.04278e-014 1.19271e-015
rhumerus -30.5783 -7.48727 -91.4502
rradius 26.7311
rwrist 34.5432
rhand 14.524 -17.6134
rfingers 7.12502
rthumb 39.4034 -43.0167
lclavicle 4.04278e-014 1.19271e-015
lhumerus -36.0535 14.8609 85.2937
lradius 30.7493
lwrist -17.3736
lhand -6.02056 12.6166
lfingers 7.12502
lthumb 19.8126 41.6268
rfemur -8.99025 2.41107 21.9597
rtibia 22.7123
rfoot -14.2906 1.09308
rtoes -7.43155
lfemur -7.51212 -3.11542 -19.3194
ltibia 25.9985
lfoot -20.505 14.1058
ltoes -20.3191
564
root 44.6484 17.8125 12.0919 -18.1762 85.0575 -18.7327
lowerback -2.26013 -1.5286 3.7018
upperback -1.51935 -2.08957 -1.22351
thorax -0.473185 -1.07535 -3.36769
lowerneck -3.80196 0.456948 -4.49711
upperneck 7.98063 0.581822 4.82952
head 3.24047 0.352981 2.41931
rclavicle 3.26752e-014 1.11319e-014
rhumerus -30.419 -7.36049 -91.6317
rradius 26.9246
rwrist 34.4722
rhand 14.6136 -17.4394
rfingers 7.12502
rthumb 39.4878 -42.8179
lclavicle 3.26752e-014 1.11319e-014
lhumerus -36.4235 15.681 84.7418
lradius 29.8324
lwrist -18.6518
lhand -6.17254 12.69
lfingers 7.12502
lthumb 19.6665 41.7152
rfemur -8.92974 2.65327 21.9787
rtibia 22.6411
rfoot -14.3741 0.831858
rtoes -7.56926
lfemur -7.53442 -3.09626 -19.325
ltibia 26.0452
lfoot -19.6023 14.2215
ltoes -22.2763
